<?xml version="1.0" encoding="UTF-8"?> <svg xmlns="http://www.w3.org/2000/svg" width="400" height="201" fill="none" viewBox="0 0 400 201"><path fill="#e31937" d="m230.14 31.97-.61.98-14.31 22.85V31.97h-55.15c-3.42-15.13-15.63-26.12-34.72-30.72-3.89-.94-6.66-1.21-6.76-1.23h-.21L2.11 0H0v161.43h109.94c20.62 0 34.48-5.87 42.11-18.18v16.99h62.53v-23.61l12.96 21.92.63 1.03h72.13l-2.04-3.23-40.35-64.24 12.56-21.96v16.72h34.01v71.45h64.67V84.96H400V31.97zm-120.2 118.57H10.87V10.89H117.9c16.11 1.96 32.32 12.03 32.32 30.13 0 31.7-25.33 35.15-28.23 35.15h-2.06l-.05 2.04-.21 2.04-.05 1.61 2.03.13c15.73 1.01 26.71 14.91 26.71 30.16-.01 27.63-10.79 38.39-38.42 38.39m27.76-71.13c4.67-2.57 9.85-6.44 14.35-12.03v24.53c-3.73-4.96-8.53-9.16-14.35-12.5m252.45-4.29h-30.84v73.34h-44.96V77.02h-34.01V48.2l-2.09-.03-5.26-.05-1.26-.01-.59 1.08-24.07 42.07-.62 1.09.67 1.09 35.37 56.32h-48.71l-25.1-42.49-3.94-6.63v49.75h-42.83V41.79h43.48v48.26l3.9-6.2 26.33-42.06h154.55v33.33z"></path><path fill="#6d6e71" fill-rule="evenodd" d="M64.01 92.05s1.39-1.07-.53-1.91c0 0-8.35 2.52-13.54 2.3-5.22-.23-14.35-.47-22.98-5.45 0 0-2.24-.13 2.19 2.38 4.45 2.54 15.24 7.19 34.86 2.68m1.22 1.3s-16.25 4.75-30.25.25c0 0 3.53 4.23 18.17 3.43 10.71-.58 13.08-2.3 13.08-2.3s.62-1.08-1-1.38m-.22 6.68s-7.35 5.6-18.23 2.15c0 0-1.09.45.46 1.14 1.52.68 4.67 2.15 8.9 1.54 4.19-.63 5.87-.92 9.41-3.6 0-.01 1.3-1.4-.54-1.23m47.49-23.26s-.41-.97-1.45-.08c-1.05.88-2.88 2.02-1.93 2.75.99.71 4.11 5.62 4.11 5.62l-34.22 21.98s-3.68 3.3-8.61.89c0 0-1.05.24-.07 1.29.96 1.05 2.81 2.89 6.35 1.2 3.55-1.71 38.38-24.61 38.38-24.61zm-7.15 28.83c1.69.07 1.05-1.2.07-1.38-.97-.16-3.14-.08-4.92.81-1.75.89-2.48 1.93-1.27 2.01 1.19.09 1.11-.63 2.9-1.44 1.76-.82 3.22 0 3.22 0m.32 3.76s.47-1.92-1.04-2.17c-1.55-.24-2.99.46-2.27 1.41.72.86.66 1.58-.39 1.43-1.05-.18-.24.78.39 1.29.66.47 1.3 1.84-.63 1.45-1.95-.41-5.15-2.12-5.89-2.49-.7-.42-5.95-2.2-7.63-2.2s-3.55 2.48-1.68 3.71c1.84 1.22 6.18 3.23 7.15 3.47.96.23 4.59 2.09 5.46 7.16.9 5.07 2.68 6.6 4.6 6.84 1.94.26 5.09-1.37 5.73-2.09.65-.73 1.52-1.21 2.63-.41 0 0 .65-.54.57-1.05-.07-.47-.07-1.6-.07-1.6s-.98-.57-1.61-.41c-.65.16-2.97.88-3.38 0-.42-.86-1.06-2.88.89-3.29 1.93-.39 2.98-.55 2.98-.55s-3.95-5-3.79-7.08c0 0 0-2.74-.64-2.83-.64-.1-1.38-.59-1.38-.59m12.4 10.55s1.59.24.55-1.93c-1.07-2.18-3.14-6.44-4.28-9.52-1.11-3.02-1.99-3.68-1.99-6 0-2.34-.58-7.82-1.45-9.52 0 0-.35-.95-1.62.1-1.28 1.03-12.39 7.73-12.39 7.73s.15.64 1.93.24c1.77-.39 8.3-1.69 10.88.25 2.55 1.92 1.67 4.27 1.52 5.07-.17.8-.27 3.22 2.9 8.37 4.26 6.9 3.95 5.21 3.95 5.21m-6.76 12.88s.86-.24.63-1.52c-.26-1.29-1.04-1.37-1.76-1.37s-3.05 1.13-3.05 1.13.05.41 1.61.47c1.51.1 2.57 1.29 2.57 1.29m-2.34 4.19s-1.94-1.21-4.34-1.11c-2.42.08-2.99.88-3.08 1.6-.08.72-.47 2.99 1.38 4.27 1.86 1.29 2.5 1.29 3.21 1.37.74.09 2.42 1.53 2.6 1.95.15.39.86 1.03 1.59-.82.72-1.87 1.74-4.28-1.36-7.26m-4.52-66.07s.65-.74-.32-.79c-1.34-.09-3.92.45-4.81.74-.91.32-1.35.12-1.35.12-14.6-5.7-24.88-4.02-27.05-3.68C52.72 69.84 45 80.41 44.08 81.49c-.91 1.07 0 1.24 0 1.24h1.14c.58 0 1.39-.9 1.39-.9C63.89 61.86 92.73 71 94.59 71.4c1.83.41 1.57.82 1.57.82.08 2 1.43.85 1.43.85 1.94-1.5 6.86-2.16 6.86-2.16m3.72 2.1.89.12-1.69 1.9-6.05 5.76c-2.61-1.71-4.29-1.55-6.28-1.78s-1.16-1.15-.47-1.67c.69-.54 2.61-.71 3.23-.62.61.09.76.62 3.23.46 2.44-.14 4.57-1.82 5.34-2.6.76-.76-.24-1.61-.24-1.61-5.96-.54-9.86 2.61-9.86 2.61-5.45-4.68-17.27-4.83-21.3-4.45-17.79 1.69-24.06 11.28-24.06 11.28s15.01.29 17.15.22c2.15-.07 4.3.22 5.36 1.23 1.08.99 1.22 1.08 1.85 1.39.61.3 6.51.22 7.75.3 1.22.07 4.75-.16 6.12 1.07 1.73 1.56 1.07 3.23 1.07 3.23l-15.46 14.02c-2.09-.23-2.63-2.15-2.33-3.51.31-1.39 2.38-2.38 3.46-2.23 1.06.17 2.28-.15 2.15-.6-.15-.47-1.84-.86-1.84-.86-2.77-2.75.56-4.3.56-4.3s3.88-.29 5.49-.14c1.61.14.84-.92.39-1-.47-.09-4.9-.14-5.83-.09-.91.09-1.59-.61-1.91-1.83-.3-1.22 1-1.6 1-1.6s6.65.45 8.88.29c2.24-.15 0-1.01 0-1.01s-6.82-.38-8.66-.38c-1.83 0-2.88-.65-2.88-.65-1.29-1.28-3.87-1.78-3.87-1.78s-13.69-.15-25.44-.48c-11.75-.31-20.02-4.1-20.02-4.1-.23.39-1.25 2.27-1.25 2.27 15.62 6.91 29.27 5.2 31.87 4.83 2.59-.4 9.19-1.23 13.55-.77 4.37.47 5.6 4.67 5.36 7.2-.24 2.52-1.93 3.05-2.77 3.23-.83.15-1.44.08-2.44-.71-.98-.74-3.39.86-3.39.86-13.53 4.75-21.83 1.77-23.96 1.3-2.14-.46-4.47-.99-1.76.23 13.42 6.15 24.53 1.22 26.82 0 2.3-1.22 3.68.63 3.84 1.75.16 1.15.45 4.29 2.75 5.29 2.31 1.03 3.6-.67 3.6-.67l14.79-12.34c2.08-1.74 17.06-15.12 20.87-18.51.15.01.68-.75 1.22-.68.53.05.92 1.88 1.46 3.65.53 1.79 1.92 6.16 2.61 9.08.23.9-.05 1.6-.74 2.09-.7.47-3.55 2.79-3.55 2.79s-.6.96-.32 2.2c.26 1.23 1.34 5.19 1.02 9.88-.05.6.58 2.51 1.03 3.43.46.89 4.38 8.75 4.96 10.1.58 1.36 2.67 5.58-2.25 7.49-1.66.63-3.16.63-3.16.63s-.34.84-.19 1.69c.13.83-.39 2.45-1.31 2.7-.88.25.14 1.56.46 1.81.31.25 1.17 3.09-2.25 5.79 0 0 2.95 3.35 1.54 7.27-1.4 3.92-4.43 3.86-5.79 3.86l-56.27.04s-2.14.21-1.28-1.83c.86-2.03 2.57-8.69-.53-9.02-3.11-.31-7.94-.74-10.51-3.1-2.6-2.36-2.06 2.03-1.85 2.47.22.43 1.4 8.14 3.34 11.05H26.21l-2.68-4.29s1.55-2.64 1.81-3.32c.29-.71-.25-1.06-.79-.62-.52.43-2.53 1.79-2.53 1.79s-4.13-7.01-6.72-16.57l3.42-4.27c1.6-2.04-1.5-.38-2.12-.3-.4.02-1.25.9-1.61.98-.38.09-.75-12.92-.09-14.98.59-1.88 2.03-1.88 2.55-2.19.54-.32 2.53-1.63 2.8-2.22.27-.58-.1-.54-.54-.62-.41-.12-3.16.47-3.79.04-.64-.44 1.29-4.35 1.29-4.35S21.33 80.42 29 72.08l6.62-.14c.19 0 1.33-.16-.07-1.08-1.38-.9-3.38-1.82-3.38-1.82s.59-.86 1.72-2.05c1.11-1.16 9.29-9.16 16.35-11.97 0 0 3.66 1.99 5.65 3.71 0 0 .49.32-.37-2.09-.85-2.41-.93-3.43-.39-3.76.54-.34 12.25-5.63 30.12-3.77.63.08.9.61.97.92.04.33.84 5.36 1.16 5.43.33.04.6-.37 1.3-1.99.71-1.61 1-3.47 2.1-3.43 1.05.05 12.33 2.85 22.49 9.89.66.46 1.02 1.17.37 1.49-.65.33-7.46 3.92-8.42 7.34-.48 1.61.42 1.3 1.53 1.64 1.14.26 1.42 2.61 1.42 2.61" clip-rule="evenodd"></path><path fill="#6d6e71" d="M283.36 2.95h6.88c3.98 0 5.35 2.92 5.35 5.84 0 4.04-2.48 5.87-6.19 5.87h-2.1v7.78h-3.93V2.95zm3.93 8.81h1.75c1.56 0 2.62-.93 2.62-2.92 0-1.91-.76-3-2.73-3h-1.64zm10.56-8.81h7.26c3.22 0 5.18 1.69 5.18 5.02 0 2.59-1.04 4.34-3.25 4.8v.06c2.67.35 3.08 1.83 3.14 5.95.03 2.05.14 3.11.87 3.49v.16h-4.26c-.38-.55-.46-1.28-.49-2.05l-.11-3.74c-.06-1.53-.74-2.46-2.32-2.46h-2.1v8.24h-3.93V2.95zm3.93 8.51h1.64c1.88 0 2.95-.82 2.95-2.92 0-1.8-.95-2.7-2.73-2.7h-1.86zm22.45-8.51v3.22h-6.96v4.58h6.55v3.22h-6.55v5.24h7.23v3.22h-11.16V2.95zm12.63 0v14.02c0 4.15-1.88 5.84-5.87 5.84-4.15 0-5.16-2.65-5.16-5.7v-.85h3.6v.6c0 2.07.33 3.05 1.75 3.05s1.75-.98 1.75-3.05V2.95zm13.37 19.47V8.78h-3.85V6.22h.35c2.56 0 4.15-.98 4.53-3.11h2.89v19.31zm13.07-4.5c0 1.45.46 2.32 1.77 2.32 2.08 0 2.4-2.07 2.4-4.91v-.93h-.06c-.65.98-1.94 1.64-3.63 1.64-3.44 0-4.72-2.57-4.72-6.03 0-4.42 1.94-6.9 6.25-6.9 5.4 0 6.08 4.31 6.08 9.03 0 5.49-.11 10.67-6.49 10.67-2.78 0-5.32-1.17-5.37-4.88h3.77zm1.83-4.77c1.56 0 2.15-1.04 2.15-3.66-.03-2.21-.33-3.82-2.15-3.82-1.91 0-2.13 1.64-2.13 3.82 0 2.62.6 3.66 2.13 3.66m19.37 9.27h-11.89c0-3.44 1.39-5.81 4.26-8.46l1.58-1.47c1.72-1.56 2.02-2.43 2.02-4.42 0-1.61-.68-2.4-1.91-2.4-1.96 0-2.15 1.72-2.18 3.76h-3.77v-.74c0-3.57 1.88-5.59 6-5.59 3.87 0 5.78 1.94 5.78 5.26 0 2.51-.79 4.15-3 6.14l-2.18 2.02c-1.14 1.04-1.8 2.1-1.99 2.84h7.28zm12.63-15.87h-7.12l-.41 4.39h.06c.74-1.01 1.88-1.45 3.55-1.45 3.71 0 4.72 3.11 4.72 6.17 0 4.23-1.23 7.15-6.19 7.15-4.91 0-5.7-3.22-5.7-5.37v-.52h3.77c0 1.28.22 3.16 1.91 3.16 1.58 0 2.29-1.25 2.29-3.76 0-3.19-.49-4.09-2.27-4.09-1.12 0-1.72.68-1.85 1.77h-3.52l.71-10.5h10.07v3.05z"></path><path fill="#6d6e71" fill-rule="evenodd" d="M5.08 195.66h1c1.49 0 2.45-.08 2.86-.26.98-.42 1.45-1.6 1.45-3.51 0-1.46-.2-2.45-.64-3-.5-.6-1.45-.91-2.85-.91H5.08zm0-11.39h.88c1.83 0 2.93-.29 3.37-.88.35-.45.52-1.38.52-2.73 0-1.05-.17-1.76-.46-2.17-.39-.5-1.1-.74-2.09-.74H5.1v6.52zM8.7 199.4H.33v-25.38h7.65c2.62 0 4.4.65 5.39 1.86.82 1.07 1.24 2.6 1.24 4.58 0 2.78-1.02 4.57-3.07 5.3v.07c2.49.34 3.7 2.3 3.7 5.91 0 1.3-.11 2.34-.34 3.11-.49 1.59-1.22 2.74-2.21 3.46-.97.72-2.3 1.09-3.99 1.09m11.99 0H15.6l6.07-25.38h6.37l5.74 25.38h-5.07l-1.24-6.44h-5.54zm3.41-17.34-1.43 7.19h4.07l-1.37-7.19c-.1-1.17-.3-2.9-.57-5.23h-.06c-.08 1.15-.3 2.89-.64 5.23M46.09 179v-4.98h4.74v25.38h-4.94l-3.69-9.05c-1.19-2.92-2.33-6.28-3.38-10.07h-.06c.49 6.15.73 10.93.73 14.34v4.77h-4.72v-25.38h4.9l3.69 9.23c1.26 3.18 2.37 6.55 3.39 10.08h.05c-.49-6.43-.71-11.21-.71-14.32m11.4 20.4h-4.71v-25.38h4.71v11.27h.08c.44-1.18 1.42-3.21 2.99-6.1l2.76-5.17h5.34l-6.27 10.89 6.57 14.49h-5.33l-4.48-10.01-1.66 2.72zm17.2 0h-5.07l6.06-25.38h6.41l5.74 25.38h-5.08l-1.24-6.44h-5.55zm3.43-17.34-1.43 7.19h4.07l-1.35-7.19c-.12-1.17-.31-2.9-.58-5.23h-.07c-.1 1.15-.32 2.89-.64 5.23m25.59 17.34h-4.74v-25.38h4.74v11.27h.07c.41-1.18 1.41-3.21 2.97-6.1l2.77-5.17h5.34l-6.24 10.89 6.56 14.49h-5.34l-4.47-10.01-1.66 2.72zm11.51-11.11v-3.62c0-3.81.44-6.5 1.32-8.04 1.18-2.15 3.52-3.22 6.97-3.22 3.44 0 5.76 1.07 7 3.22.85 1.55 1.28 4.24 1.28 8.04v3.62c0 4.04-.4 6.83-1.23 8.39-1.17 2.22-3.51 3.31-7.06 3.31s-5.9-1.09-7.07-3.31c-.81-1.55-1.21-4.34-1.21-8.39m4.87-4.67v7.06c0 3.66 1.13 5.5 3.42 5.5 1.49 0 2.48-.7 2.97-2.05.29-.82.44-2.1.44-3.87v-6.48c0-1.83-.13-3.17-.38-4.04-.51-1.65-1.53-2.48-3.04-2.48-1.61 0-2.64.83-3.11 2.47-.2.7-.3 2.02-.3 3.89m18.76 7.79v7.99h-4.74v-25.38h7.54l2.53 11.77c.35 1.61.64 3.58.88 5.85h.06c.13-1.38.38-3.34.75-5.85l2.53-11.77h7.5v25.38h-4.73v-7.99c0-5.58.13-10.62.42-15.1h-.08l-5.06 23.09h-2.88l-4.98-23.09h-.17c.28 4.48.43 9.52.43 15.1m24.25 4.25h1c1.52 0 2.46-.08 2.86-.26.96-.42 1.45-1.6 1.45-3.51 0-1.46-.21-2.45-.65-3-.51-.6-1.44-.91-2.84-.91h-1.82zm0-11.39h.87c1.82 0 2.94-.29 3.38-.88.35-.45.52-1.38.52-2.73 0-1.05-.17-1.76-.46-2.17-.4-.5-1.11-.74-2.13-.74h-2.18zm3.63 15.13h-8.37v-25.38H166c2.62 0 4.42.65 5.39 1.86.83 1.07 1.24 2.6 1.24 4.58 0 2.78-1 4.57-3.04 5.3v.07c2.46.34 3.69 2.3 3.69 5.91 0 1.3-.12 2.34-.34 3.11-.49 1.59-1.25 2.74-2.24 3.46-.96.72-2.28 1.09-3.97 1.09m21.42 0h-13.31v-25.38h13.31v3.73h-8.6v6.38h7.93v3.74h-7.93v7.79h8.6zm2.04-21.65v-3.73h15.77v3.73h-5.5v21.65h-4.74v-21.65zm18.03 21.65h-5.07l6.03-25.38h6.41l5.75 25.38h-5.06l-1.26-6.44h-5.54zm3.43-17.34-1.43 7.19h4.05l-1.35-7.19c-.13-1.17-.3-2.9-.58-5.23h-.05c-.09 1.15-.31 2.89-.64 5.23m16.85 6.4h-.84v10.94h-4.75v-25.38h8.98c4.79 0 7.2 2.04 7.2 6.11 0 3.7-1.29 5.75-3.9 6.11v.07c2.45.31 3.67 1.84 3.67 4.6 0 4.9.34 7.57 1 8v.48h-5.21c-.27-.74-.44-2.9-.5-6.43-.02-1.18-.1-2.03-.21-2.49-.25-.92-.72-1.45-1.44-1.66-.76-.23-2.1-.35-4-.35m-.84-10.71v7h3.71c1.84 0 2.77-1.22 2.77-3.66 0-1.33-.29-2.25-.8-2.73-.47-.41-1.17-.61-2.18-.61zm27.18 21.65h-13.32v-25.38h13.32v3.73h-8.57v6.38h7.9v3.74h-7.9v7.79h8.57zm10.57-21.65v-3.73h15.78v3.73h-5.51v21.65h-4.74v-21.65zm22.83 10.71h-.85v10.94h-4.74v-25.38h8.95c4.81 0 7.22 2.04 7.22 6.11 0 3.7-1.3 5.75-3.88 6.11v.07c2.42.31 3.65 1.84 3.65 4.6 0 4.9.34 7.57 1 8v.48h-5.21c-.26-.74-.43-2.9-.49-6.43-.02-1.18-.1-2.03-.22-2.49-.24-.92-.72-1.45-1.41-1.66-.77-.23-2.1-.35-4.02-.35m-.84-10.71v7h3.71c1.85 0 2.79-1.22 2.79-3.66 0-1.33-.28-2.25-.81-2.73-.47-.41-1.18-.61-2.17-.61zm26.86 21.65h-13.31v-25.38h13.31v3.73h-8.6v6.38h7.92v3.74h-7.92v7.79h8.6zm1.98-11.11v-3.62c0-3.84.43-6.5 1.3-8.04 1.18-2.16 3.5-3.22 6.98-3.22 2.18 0 3.88.38 5.11 1.09 1.39.85 2.33 2.33 2.83 4.41.12.44.19 1.45.25 3.07h-4.72c-.06-1.6-.25-2.7-.55-3.31-.49-.93-1.47-1.41-2.92-1.41-1.58-.04-2.62.79-3.11 2.44-.18.71-.3 2.03-.3 3.94v7.06c0 3.66 1.14 5.5 3.41 5.5 2.44 0 3.58-2.26 3.49-6.7h-3.3v-3.73h7.88v13.64h-3.52v-2.91h-.09c-.84 2.31-2.32 3.47-4.46 3.51-3.55.03-5.89-1.05-7.06-3.28-.82-1.57-1.22-4.37-1.22-8.44m17.05-10.54v-3.73h15.79v3.73h-5.5v21.65h-4.75v-21.65zm17.7 21.65h-5.08l6.08-25.38h6.39l5.74 25.38h-5.07l-1.25-6.44h-5.57zm3.42-17.34-1.41 7.19h4.05l-1.36-7.19c-.09-1.17-.29-2.9-.57-5.23h-.05c-.11 1.15-.32 2.89-.66 5.23m16.86 6.4h-.85v10.94h-4.71v-25.38h8.94c4.8 0 7.21 2.04 7.21 6.11 0 3.7-1.29 5.75-3.88 6.11v.07c2.43.31 3.64 1.84 3.64 4.6 0 4.9.37 7.57 1.02 8v.48h-5.21c-.25-.74-.45-2.9-.49-6.43-.01-1.18-.11-2.03-.22-2.49-.23-.92-.71-1.45-1.42-1.66-.76-.23-2.12-.35-4.03-.35m-.85-10.71v7h3.71q2.79 0 2.79-3.66c0-1.33-.28-2.25-.81-2.73-.47-.41-1.2-.61-2.18-.61zm28.21 21.65h-13.32v-25.38h13.32v3.73h-8.59v6.38h7.91v3.74h-7.91v7.79h8.59z" clip-rule="evenodd"></path></svg> 