<?xml version="1.0" encoding="UTF-8"?> <svg xmlns="http://www.w3.org/2000/svg" width="136.487" height="43.344" viewBox="0 0 136.487 43.344"><linearGradient id="a" gradientUnits="userSpaceOnUse" x1="6.311" y1="28.617" x2="30.499" y2="28.617"><stop offset="0" stop-color="#ff7e00"></stop><stop offset=".999" stop-color="#f63b00"></stop></linearGradient><path fill="url(#a)" d="M19.095 33.675l11.404.008c-.507-2.375-1.714-4.579-3.534-6.358a13.2 13.2 0 0 0-9.247-3.764l-10.884-.01h-.523c1.214 5.761 6.48 10.119 12.784 10.124"></path><linearGradient id="b" gradientUnits="userSpaceOnUse" x1="2.483" y1="14.922" x2="26.67" y2="14.922"><stop offset="0" stop-color="#ff7e00"></stop><stop offset=".999" stop-color="#f63b00"></stop></linearGradient><path fill="url(#b)" d="M26.67 9.854l-11.406.01a13.192 13.192 0 0 0-9.248 3.762c-1.817 1.777-3.028 3.98-3.532 6.363h.003v-.006l4.312.003 7.086-.013c6.302-.004 11.573-4.358 12.785-10.119"></path><linearGradient id="c" gradientUnits="userSpaceOnUse" y1="21.672" x2="45.021" y2="21.672"><stop offset="0" stop-color="#ff7e00"></stop><stop offset=".999" stop-color="#f63b00"></stop></linearGradient><path fill="url(#c)" d="M45.016 3.645A3.647 3.647 0 0 0 41.38.007L3.633 0A3.646 3.646 0 0 0 0 3.638v12.519c2.546-5.777 8.436-9.849 15.261-9.855l15.236-.018.001 1.016c.006 5.642-2.983 10.637-7.495 13.555 6.57 2.17 11.331 8.262 11.325 15.382v1.02l-15.238-.022c-8.25-.009-15.143-5.958-16.399-13.683L0 23.557v16.152a3.644 3.644 0 0 0 3.633 3.635h37.754a3.646 3.646 0 0 0 3.634-3.635l-.005-36.064z"></path><path fill="#817970" d="M75.514 26.624c0-1.525-.764-2.291-2.287-2.291h-7.625v5.339h7.625c1.523 0 2.287-.761 2.287-2.289v-.759zm-1.15-10.674c0-1.526-.757-2.284-2.286-2.284h-6.477v5.331h6.477c1.53 0 2.286-.761 2.286-2.284v-.763zM58.745 8.328h15.24c2.49 0 4.32.569 5.488 1.698 1.171 1.128 1.752 2.849 1.752 5.163 0 1.525-.325 2.762-.988 3.717-.659.954-1.471 1.617-2.442 1.998 2.063.562 3.456 1.93 4.197 4.121.253.786.383 1.697.383 2.741 0 2.491-.588 4.321-1.756 5.491-1.17 1.168-2.999 1.751-5.488 1.751H58.745V8.328zm43.824 7.622c0-1.526-.766-2.284-2.288-2.284h-7.622v8.383h7.622c1.523 0 2.288-.765 2.288-2.286V15.95zM85.801 8.328h16.002c2.673 0 4.607.604 5.813 1.81 1.206 1.207 1.811 3.144 1.811 5.812v3.813c0 2.669-.605 4.607-1.811 5.812-1.205 1.207-3.139 1.807-5.813 1.807h-9.145v7.624h-6.857V8.328zm43.83 18.296c0-1.525-.766-2.291-2.292-2.291h-7.622v5.339h7.622c1.526 0 2.292-.761 2.292-2.289v-.759zm-1.147-10.674c0-1.526-.76-2.284-2.289-2.284h-6.478v5.331h6.478c1.529 0 2.289-.761 2.289-2.284v-.763zm-15.627-7.622h15.245c2.487 0 4.318.569 5.488 1.698 1.168 1.128 1.752 2.849 1.752 5.163 0 1.525-.328 2.762-.99 3.717-.66.954-1.47 1.617-2.44 1.998 2.058.562 3.455 1.93 4.194 4.121.257.786.381 1.697.381 2.741 0 2.491-.586 4.321-1.754 5.491-1.166 1.168-2.994 1.751-5.489 1.751h-16.386V8.328z"></path></svg> 