<svg width="189" height="44" viewBox="0 0 189 44" fill="none" xmlns="http://www.w3.org/2000/svg">
<path d="M76.0487 10.0026C75.0672 9.24393 73.8614 8.73819 72.4033 8.51341C72.0668 8.45722 71.7303 8.40102 71.3657 8.40102C71.0012 8.37292 70.6927 8.37292 70.4403 8.37292H59.8967V35.1213H63.2056V25.2312H70.4403C70.6927 25.2312 71.0012 25.2312 71.3657 25.2031C71.7303 25.175 72.0668 25.1469 72.4033 25.0907C73.8334 24.8659 75.0392 24.3602 76.0206 23.6015C77.0021 22.8148 77.7311 21.8595 78.2359 20.6794C78.7406 19.4994 78.993 18.2069 78.993 16.802C78.993 15.3691 78.7406 14.0766 78.2639 12.9246C77.7592 11.7446 77.0301 10.7612 76.0487 10.0026ZM75.2635 18.9936C75.0111 19.696 74.6185 20.3142 74.0858 20.848C73.553 21.3819 72.8519 21.7471 72.0107 21.9438C71.7303 22 71.4498 22.0562 71.1414 22.0843C70.8329 22.1124 70.5806 22.1124 70.3282 22.1124H63.2056V11.5198H70.3282C70.5525 11.5198 70.8329 11.5198 71.1414 11.5479C71.4498 11.576 71.7303 11.6041 72.0107 11.6884C72.8519 11.8851 73.553 12.2222 74.0858 12.7561C74.6185 13.2899 75.0111 13.908 75.2635 14.6105C75.5159 15.3129 75.628 16.0434 75.628 16.802C75.628 17.5326 75.5159 18.2631 75.2635 18.9936Z" fill="#5F4393"/>
<path d="M91.107 14.9195C90.434 14.9757 89.761 15.0881 89.116 15.3129C88.4711 15.5377 87.8822 15.8467 87.3494 16.2682C86.8727 16.6054 86.4521 17.0268 86.0875 17.5607C85.9193 17.7854 85.7791 18.0102 85.6389 18.235V15.06H82.6945V35.1213H86.0034V25.0345C86.0034 24.2478 86.0595 23.4611 86.1997 22.7024C86.3399 21.9438 86.5923 21.2414 86.9288 20.5671C87.2933 19.9208 87.77 19.3589 88.415 18.9093C89.116 18.3755 89.8732 18.0945 90.7144 18.0102C91.5556 17.9259 92.3128 17.9821 92.9858 18.1507V15.06C92.4249 14.9195 91.808 14.8633 91.107 14.9195Z" fill="#5F4393"/>
<path d="M100.22 15.06H96.9116V35.1213H100.22V15.06Z" fill="#5F4393"/>
<path d="M100.22 8.09195H96.9116V11.5198H100.22V8.09195Z" fill="#5F4393"/>
<path d="M120.775 20.9604C121.504 20.539 122.121 19.9489 122.626 19.2184C123.355 18.1226 123.747 16.8582 123.747 15.4253C123.747 14.189 123.439 13.037 122.85 11.9694C122.261 10.9017 121.392 10.0307 120.242 9.38443C119.092 8.7382 117.746 8.40103 116.148 8.40103H105.745V35.1213H117.073C118.7 35.1213 120.102 34.8123 121.308 34.166C122.513 33.5479 123.411 32.6488 124.056 31.5249C124.701 30.3729 125.009 29.0243 125.009 27.4789C125.009 25.7931 124.532 24.3321 123.579 23.0958C122.878 22.1405 121.925 21.4381 120.775 20.9604ZM109.11 11.4917H116.12C117.382 11.4917 118.391 11.857 119.177 12.5875C119.962 13.318 120.354 14.2452 120.354 15.3972C120.354 16.2401 120.158 16.9425 119.793 17.5607C119.429 18.1788 118.896 18.6565 118.279 18.9936C117.634 19.3308 116.933 19.4994 116.148 19.4994H109.138V11.4917H109.11ZM120.943 29.8672C120.494 30.5415 119.878 31.0473 119.092 31.4125C118.307 31.7778 117.438 31.9464 116.456 31.9464H109.11V22.6462H116.849C117.802 22.6462 118.644 22.871 119.373 23.2925C120.102 23.7139 120.663 24.304 121.055 25.0064C121.448 25.7369 121.644 26.5236 121.644 27.4508C121.644 28.378 121.392 29.1929 120.943 29.8672Z" fill="#5F4393"/>
<path d="M144.077 18.4036C143.517 17.083 142.563 16.0996 141.273 15.4534C139.983 14.8071 138.413 14.47 136.59 14.47C134.319 14.47 132.496 14.9757 131.122 15.9872C129.748 16.9987 128.795 18.3755 128.318 20.1175L131.459 21.0728C131.823 19.8365 132.468 18.9374 133.366 18.4036C134.263 17.8416 135.328 17.5887 136.534 17.5887C138.357 17.5887 139.647 18.0102 140.404 18.8812C141.077 19.6398 141.442 20.7918 141.47 22.3091C140.769 22.3933 140.039 22.5057 139.254 22.6181C138.048 22.7867 136.843 22.9553 135.665 23.152C134.487 23.3486 133.422 23.5734 132.468 23.8263C131.459 24.1354 130.589 24.5287 129.86 25.0345C129.131 25.5402 128.57 26.1864 128.178 26.9732C127.785 27.7599 127.589 28.659 127.589 29.6986C127.589 30.7663 127.841 31.7778 128.346 32.6769C128.851 33.576 129.608 34.3065 130.617 34.8684C131.627 35.4304 132.861 35.6833 134.375 35.6833C136.31 35.6833 137.964 35.2618 139.31 34.447C140.292 33.8569 141.105 33.0421 141.778 32.0025V35.1213H144.694V22.7024C144.694 21.9157 144.666 21.1571 144.582 20.4265C144.554 19.696 144.358 19.0498 144.077 18.4036ZM141.413 26.2145C141.385 26.9732 141.301 27.6756 141.105 28.2937C140.937 29.1366 140.6 29.8953 140.067 30.5977C139.535 31.3001 138.834 31.8621 137.964 32.2835C137.095 32.705 136.058 32.9297 134.88 32.9297C133.926 32.9297 133.169 32.7612 132.58 32.4521C131.992 32.143 131.571 31.7497 131.29 31.2439C131.01 30.7382 130.87 30.2324 130.87 29.6986C130.87 29.0804 131.01 28.5466 131.319 28.1251C131.599 27.7037 131.992 27.3384 132.468 27.0856C132.945 26.8046 133.45 26.5798 134.011 26.4112C134.74 26.2145 135.581 26.0179 136.506 25.8774C137.432 25.7369 138.413 25.5683 139.451 25.4278C140.124 25.3435 140.797 25.2592 141.47 25.1469C141.442 25.4278 141.442 25.7931 141.413 26.2145Z" fill="#5F4393"/>
<path d="M166.202 19.0498C165.866 18.2069 165.389 17.4483 164.772 16.7739C164.155 16.0996 163.398 15.5658 162.501 15.1443C161.575 14.7229 160.482 14.5262 159.192 14.5262C157.481 14.5262 155.995 14.8914 154.705 15.6501C153.836 16.1558 153.107 16.8301 152.518 17.645V15.06H149.546V35.1213H152.882V24.5568C152.882 23.4049 153.023 22.3934 153.275 21.5224C153.527 20.6513 153.92 19.9489 154.397 19.387C154.873 18.825 155.462 18.4036 156.135 18.1226C156.808 17.8416 157.565 17.7012 158.379 17.7012C159.444 17.7012 160.313 17.8978 161.015 18.3193C161.716 18.7407 162.276 19.2746 162.669 19.977C163.09 20.6794 163.37 21.4662 163.538 22.3372C163.707 23.2082 163.791 24.1354 163.791 25.0907V35.1213H167.128V24.023C167.128 23.2644 167.043 22.4496 166.903 21.5785C166.791 20.7356 166.539 19.8646 166.202 19.0498Z" fill="#5F4393"/>
<path d="M179.129 25.0907L187.962 15.06H183.672L175.288 24.6973V8.37292H171.951L171.923 35.1213H175.288V25.4559L184.373 35.1213H189L179.129 25.0907Z" fill="#5F4393"/>
<path d="M25.7141 12.9527C25.8263 11.857 25.4057 10.7612 24.4522 9.6092C24.0316 9.10345 23.3867 8.82248 22.6856 8.82248H12.6187V21.9157L23.1623 16.802C23.3306 16.7178 23.4988 16.5773 23.639 16.4649C24.284 15.9029 25.5459 14.5824 25.7141 12.9527Z" fill="#5F4393"/>
<path d="M38.501 0H5.41202C2.41157 0 0 2.41635 0 5.42273V27.9847L8.6368 23.7982V7.92337C8.6368 6.51852 9.64629 4.88889 12.4504 4.88889H22.6576C24.5364 4.88889 26.2749 5.67561 27.4527 7.08046C29.1352 9.07535 29.8642 11.1826 29.6399 13.4023C29.2754 16.8863 26.5553 19.2746 25.7421 19.8927C25.5739 20.0332 25.4056 20.1456 25.2093 20.2299L12.6187 26.2988V34.4189H26.2188C26.6675 34.4189 27.0881 34.3346 27.4527 34.166C29.1912 33.3512 31.2944 31.6373 31.3504 27.9847C31.3785 26.1865 30.0886 24.4725 29.3034 23.6015C28.6585 22.871 28.4061 21.9157 28.6024 20.9604C28.7987 20.0332 29.3875 19.2465 30.2568 18.825L43.9411 12.1941V5.42273C43.9131 2.41635 41.5015 0 38.501 0Z" fill="#5F4393"/>
<path d="M35.3323 28.0409C35.2202 34.2503 30.9579 36.8914 29.1352 37.7624C28.2378 38.1839 27.2564 38.3806 26.2188 38.3806H11.6933C10.0108 38.3806 8.66484 37.0038 8.66484 35.3461V28.2094L0 32.3959V38.5772C0 41.5836 2.41157 44 5.41202 44H38.501C41.5015 44 43.9131 41.5836 43.9131 38.5772V16.6053L33.0049 21.8595C34.2107 23.4329 35.3604 25.5964 35.3323 28.0409Z" fill="#5F4393"/>
</svg>
