<svg width="439" height="92" viewBox="0 0 439 92" fill="none" xmlns="http://www.w3.org/2000/svg">
<path d="M52.627 62.7459L73.7156 35.1463H53.2834V27.4033H85.5504V34.0672L64.4618 61.6667H85.5504V69.4097H52.627V62.7459Z" fill="#1D1D1B"/>
<path d="M91.459 37.25H100.848V69.4091H91.459V37.25Z" fill="#1D1D1B"/>
<path d="M107.287 37.2507H116.675V42.9523C118.465 39.0493 121.235 36.4683 126.262 36.7111V45.9559H125.866C120.048 45.9559 116.675 49.1395 116.675 55.9202V69.4187H107.287V37.2597V37.2507Z" fill="#1D1D1B"/>
<path d="M127.323 53.8064V52.8441C127.323 41.8636 133.735 36.6387 140.813 36.6387C145.57 36.6387 148.349 38.9769 150.399 41.378V37.2412H159.788V69.4003H150.399V64.9577C148.349 67.6556 145.507 69.9938 140.813 69.9938C133.807 69.9938 127.323 64.7688 127.323 53.7884V53.8064ZM150.534 53.6265V53.024C150.534 47.5022 147.558 44.0849 143.592 44.0849C139.626 44.0849 136.712 47.5022 136.712 53.024V53.6265C136.712 59.1482 139.626 62.5656 143.592 62.5656C147.558 62.5656 150.534 59.1482 150.534 53.6265Z" fill="#1D1D1B"/>
<path d="M164.167 53.8064V52.8441C164.167 41.8636 170.58 36.6387 177.657 36.6387C182.414 36.6387 185.193 38.9769 187.244 41.378V37.2412H196.632V69.4003H187.244V64.9577C185.193 67.6556 182.351 69.9938 177.657 69.9938C170.651 69.9938 164.167 64.7688 164.167 53.7884V53.8064ZM187.378 53.6265V53.024C187.378 47.5022 184.402 44.0849 180.436 44.0849C176.47 44.0849 173.556 47.5022 173.556 53.024V53.6265C173.556 59.1482 176.47 62.5656 180.436 62.5656C184.402 62.5656 187.378 59.1482 187.378 53.6265Z" fill="#1D1D1B"/>
<path d="M203.314 61.3704V44.4455H199.744V37.2421H203.314V29.0225H212.703V37.2421H219.709V44.4455H212.703V59.6257C212.703 61.4873 213.692 62.3866 215.617 62.3866C217.137 62.3866 218.396 62.0269 219.646 61.4873V68.268C217.793 69.2303 215.545 69.9497 212.703 69.9497C207.217 69.9497 203.314 68.0882 203.314 61.3704Z" fill="#1D1D1B"/>
<path d="M234.619 27.4033H251.148C256.238 27.4033 260.402 28.6623 262.983 31.0005C265.034 32.8621 266.095 35.2632 266.095 38.078V38.2579C266.095 43.4199 262.785 46.0549 259.287 47.6826C264.377 49.3013 268.082 52.1251 268.082 57.7008V57.9436C268.082 65.3269 261.472 69.4007 251.616 69.4007H234.619V27.4033ZM258.487 39.2291C258.487 35.6319 255.645 33.5905 250.618 33.5905H242.092V45.2275H250.159C255.186 45.2275 258.487 43.249 258.487 39.3461V39.2291ZM260.474 57.1073C260.474 53.4471 257.362 51.2258 251.481 51.2258H242.092V63.2315H251.814C257.102 63.2315 260.474 61.0732 260.474 57.2332V57.1163V57.1073Z" fill="#1D1D1B"/>
<path d="M271.274 53.9325V53.0961C271.274 42.4124 277.758 37.0166 284.827 37.0166C289.917 37.0166 293.029 39.6606 295.079 42.4754V37.6191H302.615V69.4185H295.079V64.3194C292.966 67.3771 289.854 70.021 284.827 70.021C277.749 70.021 271.274 64.7421 271.274 53.9415V53.9325ZM295.277 53.8066V53.204C295.277 46.9629 291.446 43.006 286.877 43.006C282.309 43.006 278.811 46.783 278.811 53.204V53.7436C278.811 60.1017 282.381 64.0047 286.877 64.0047C291.374 64.0047 295.277 60.0477 295.277 53.8066Z" fill="#1D1D1B"/>
<path d="M308.443 37.6103H315.916V42.2328C317.966 39.409 320.745 37.0078 325.503 37.0078C332.31 37.0078 336.276 41.2076 336.276 48.1052V69.4097H328.74V50.0837C328.74 45.5242 326.492 43.1231 322.526 43.1231C318.56 43.1231 315.916 45.767 315.916 50.1466V69.4097H308.443V37.6103Z" fill="#1D1D1B"/>
<path d="M341.366 27.4033H348.839V51.5856L360.809 37.6014H369.667L358.03 50.5604L370 69.4007H361.403L352.877 55.7763L348.848 60.2728V69.3917H341.375V27.4033H341.366Z" fill="#1D1D1B"/>
<path d="M101.369 28.8327C101.369 35.7034 90.9375 35.7034 90.9375 28.8327C90.9375 21.962 101.369 21.962 101.369 28.8327Z" fill="#1D1D1B"/>
<path d="M17.2577 44.2023C16.9429 43.8066 16.6282 43.5189 16.5023 43.4109L16.4663 43.375L1.86163 31.1175C1.20514 30.452 0.836426 29.5707 0.836426 28.6264V17.6459C0.836426 17.565 0.872398 17.511 0.90837 17.4841C0.935349 17.4481 0.989307 17.4121 1.07024 17.4121C1.15118 17.4121 1.20514 17.4481 1.24111 17.4841C1.2591 17.493 16.3944 30.2002 16.3944 30.2002C17.0508 30.8657 17.4106 31.747 17.4106 32.6823C17.4106 32.6823 17.4106 42.4667 17.4106 42.5476C17.4106 42.8264 17.3926 43.1052 17.3656 43.366C17.3386 43.6627 17.3027 43.9415 17.2667 44.1843L17.2577 44.2023Z" fill="url(#paint0_linear_234_1064)"/>
<path d="M17.1765 85.9482C17.0956 85.9482 17.0416 85.9122 17.0147 85.8763C16.9967 85.8583 16.9787 85.8403 16.9607 85.8313L1.86143 73.1511C1.20494 72.4857 0.845215 71.6043 0.845215 70.6781V61.0555C0.845215 60.6868 0.854208 60.3271 0.89018 59.9854C0.917159 59.6886 0.953131 59.4188 0.998096 59.167C1.34882 59.6166 1.69955 59.9224 1.7715 59.9854L16.3942 72.2518C17.0506 72.9173 17.4104 73.8076 17.4104 74.7429V85.7234C17.4104 85.8043 17.3654 85.8583 17.3384 85.8853C17.3114 85.9122 17.2575 85.9572 17.1765 85.9572V85.9482Z" fill="url(#paint1_linear_234_1064)"/>
<path d="M1.33097 56.3169C0.69247 57.0633 1.13313 57.9626 1.61875 58.5921C1.93351 59.0058 2.26625 59.2936 2.32021 59.3385L6.87967 55.5075L4.57746 53.583L1.32198 56.3169H1.33097Z" fill="url(#paint2_linear_234_1064)"/>
<path d="M16.7542 47.2243C17.6355 46.4599 17.1589 45.4527 16.6283 44.7782C16.3405 44.4095 16.0348 44.1307 15.9448 44.0498L12.1768 47.2153L14.47 49.1399L16.7452 47.2333L16.7542 47.2243Z" fill="url(#paint3_linear_234_1064)"/>
<path d="M17.1767 62.9894C17.0958 62.9894 17.0419 62.9535 17.0149 62.9175C16.9969 62.8995 16.9789 62.8905 16.9609 62.8725L1.86163 50.1924C1.20514 49.5179 0.836426 48.6366 0.836426 47.7013V39.2748C0.836426 39.1939 0.872398 39.1399 0.90837 39.113C0.935349 39.077 0.989307 39.041 1.07024 39.041C1.15118 39.041 1.20514 39.077 1.24111 39.113C1.2591 39.1309 1.27708 39.1489 1.29507 39.1669L16.3944 51.8381C17.0508 52.5036 17.4106 53.3849 17.4106 54.3202V62.7556C17.4106 62.8366 17.3746 62.8815 17.3476 62.9175C17.3116 62.9535 17.2577 62.9894 17.1857 62.9894H17.1767Z" fill="url(#paint4_linear_234_1064)"/>
<path d="M17.9049 52.6107C17.68 52.0891 17.3563 51.6215 16.9606 51.2168L1.83434 38.5187C1.73541 38.4197 1.6185 38.3388 1.4926 38.2938C1.3667 38.2399 1.2318 38.2129 1.06993 38.2129C0.926041 38.2129 0.782152 38.2399 0.65625 38.2938L0.971006 39.0762C0.971006 39.0762 1.03396 39.0492 1.06993 39.0492C1.11489 39.0492 1.14187 39.0582 1.17785 39.0762C1.20482 39.0852 1.22281 39.1032 1.2408 39.1212L16.394 51.8463C16.7178 52.1791 16.9696 52.5658 17.1495 52.9884L17.9139 52.6197L17.9049 52.6107Z" fill="url(#paint5_linear_234_1064)"/>
<path d="M17.2757 62.962C17.2757 62.962 17.2127 62.989 17.1767 62.989C17.1408 62.989 17.1048 62.98 17.0778 62.962C17.0508 62.953 17.0328 62.935 17.0149 62.917L1.86162 50.1919C1.53787 49.8502 1.28606 49.4725 1.1062 49.0498L0.341797 49.4185C0.557629 49.9401 0.890371 50.4167 1.28606 50.8214L16.4123 63.5196C16.5113 63.6185 16.6282 63.6904 16.7541 63.7534C16.88 63.8074 17.0239 63.8343 17.1767 63.8343C17.3296 63.8343 17.4645 63.8074 17.5904 63.7534L17.2757 62.971V62.962Z" fill="url(#paint6_linear_234_1064)"/>
<path d="M17.1406 52.9793C17.3115 53.4019 17.4014 53.8606 17.4014 54.3192V62.7547C17.4014 62.7547 17.4014 62.8266 17.3834 62.8536C17.3834 62.8806 17.3565 62.8986 17.3385 62.9166C17.3205 62.9345 17.3025 62.9525 17.2755 62.9615L17.5903 63.7439C17.7162 63.69 17.8331 63.609 17.932 63.5101C18.0309 63.4112 18.1119 63.2943 18.1658 63.1684C18.2198 63.0425 18.2468 62.8986 18.2468 62.7547V54.3192C18.2468 53.7167 18.1209 53.1322 17.905 52.6016L17.1406 52.9703V52.9793Z" fill="#8A1002"/>
<path d="M0.971247 39.0676C0.971247 39.0676 0.926281 39.0945 0.908295 39.1125C0.890309 39.1305 0.872323 39.1485 0.86333 39.1755C0.854337 39.2024 0.836351 39.2384 0.836351 39.2744V47.7009C0.836351 48.1685 0.935274 48.6181 1.10614 49.0498L0.341735 49.4185C0.125902 48.8879 0 48.3124 0 47.7009V39.2744C0 39.1305 0.0359721 38.9866 0.0809372 38.8517C0.134895 38.7258 0.215833 38.6089 0.314756 38.51C0.413679 38.4111 0.521595 38.3301 0.656491 38.2852L0.971247 39.0676Z" fill="#E30613"/>
<path d="M17.9051 73.0252C17.6803 72.5036 17.3565 72.027 16.9609 71.6223C16.9609 71.6223 2.31121 59.3288 2.30222 59.3198C2.25725 59.2749 2.15833 59.1849 2.03243 59.068C1.91552 58.9421 1.76264 58.7803 1.61875 58.5914C1.35795 58.2497 1.10615 57.836 1.0342 57.3953C0.962259 56.9637 1.07018 56.541 1.51083 56.1543C1.51083 56.1543 1.05219 56.4601 0.665489 57.3144C0.665489 57.3144 0.260803 58.1957 0.998231 59.149C1.16011 59.3468 1.31299 59.5177 1.44788 59.6526C1.58278 59.7875 1.6817 59.8864 1.74465 59.9404L16.3943 72.2338C16.718 72.5666 16.9788 72.9533 17.1497 73.3759L17.9141 73.0072L17.9051 73.0252Z" fill="url(#paint7_linear_234_1064)"/>
<path d="M0.656571 57.3234C0.656571 57.3234 0.251885 58.2048 0.989313 59.158C0.971327 59.2839 0.953341 59.4098 0.935355 59.5537C0.917369 59.6886 0.899383 59.8325 0.89039 59.9854C0.881397 60.1113 0.872404 60.2462 0.863411 60.3901C0.863411 60.525 0.863411 60.6599 0.863411 60.8127C0.863411 60.8487 0.863411 70.6781 0.863411 70.6781C0.863411 71.1457 0.953341 71.5954 1.12421 72.018L0.368794 72.3778C0.143969 71.8562 0.0180664 71.2716 0.0180664 70.6691C0.0180664 70.6691 0.0180664 60.8217 0.0180664 60.7858C0.0180664 60.6329 0.0270594 60.471 0.0360525 60.3271C0.0360525 60.1832 0.0540385 60.0393 0.0630315 59.9044C0.161955 58.7353 0.413759 57.899 0.674557 57.3145L0.656571 57.3234Z" fill="#E30613"/>
<path d="M17.1406 73.3933C17.3115 73.816 17.4104 74.2657 17.4104 74.7423V85.7228C17.4104 85.7228 17.4014 85.7947 17.3834 85.8217C17.3744 85.8487 17.3565 85.8756 17.3385 85.8846C17.3295 85.9026 17.3025 85.9206 17.2755 85.9296L17.5993 86.712C17.7252 86.658 17.8421 86.5861 17.941 86.4782C18.0399 86.3793 18.1119 86.2623 18.1748 86.1364C18.2288 86.0105 18.2558 85.8667 18.2558 85.7138V74.7333C18.2558 74.1308 18.1299 73.5462 17.914 73.0156L17.1496 73.3843L17.1406 73.3933Z" fill="#8A1002"/>
<path d="M0.351074 72.3863C0.566907 72.9079 0.899649 73.3845 1.28635 73.7802L16.4216 86.4784C16.5205 86.5773 16.6284 86.6582 16.7633 86.7122C16.8892 86.7661 17.0331 86.7931 17.177 86.7931C17.3209 86.7931 17.4738 86.7661 17.5997 86.7122L17.2759 85.9298C17.2759 85.9298 17.213 85.9568 17.177 85.9568C17.1411 85.9568 17.1051 85.9478 17.0781 85.9298C17.0511 85.9208 17.0331 85.9028 17.0151 85.8848C17.0062 85.8848 1.8619 73.1597 1.8619 73.1597C1.53815 72.8269 1.28635 72.4403 1.10649 72.0176L0.351074 72.3773V72.3863Z" fill="url(#paint8_linear_234_1064)"/>
<path d="M0.341797 30.3443C0.557629 30.8659 0.890371 31.3425 1.28606 31.7382C1.28606 31.7382 15.9447 44.0407 15.9537 44.0407C15.9987 44.0856 16.0976 44.1666 16.2145 44.2925C16.3314 44.4274 16.4843 44.5803 16.6282 44.7691C16.889 45.1108 17.1408 45.5245 17.2127 45.9652C17.2847 46.3968 17.1857 46.8375 16.7451 47.2242C16.7451 47.2242 17.1947 46.9005 17.5814 46.0461C17.5814 46.0461 17.9951 45.1648 17.2487 44.2025C17.0868 44.0047 16.9339 43.8338 16.808 43.6989C16.6731 43.564 16.5652 43.4651 16.5023 43.4112L1.86162 31.1177C1.53787 30.785 1.28606 30.3983 1.1062 29.9756L0.341797 30.3353V30.3443Z" fill="url(#paint9_linear_234_1064)"/>
<path d="M17.5903 46.0465C17.5903 46.0465 18.004 45.1652 17.2575 44.2029C17.2755 44.077 17.2935 43.9511 17.3205 43.8162C17.3385 43.6724 17.3565 43.5375 17.3655 43.3846C17.3834 43.2497 17.3834 43.1148 17.3924 42.9799C17.3924 42.845 17.3924 42.7011 17.4014 42.5662C17.4014 42.5212 17.4014 40.0572 17.4014 37.6021V32.7009C17.4014 32.2332 17.3115 31.7746 17.1406 31.3609L17.905 30.9922C18.1209 31.5138 18.2468 32.0893 18.2468 32.7009V37.6111C18.2468 40.0661 18.2468 42.5392 18.2468 42.5842C18.2468 42.7371 18.2468 42.89 18.2288 43.0428C18.2288 43.1867 18.2108 43.3306 18.2018 43.4655C18.1029 44.6346 17.8511 45.471 17.5903 46.0555V46.0465Z" fill="#8A1002"/>
<path d="M1.10614 29.9849C0.935274 29.5622 0.836351 29.1036 0.836351 28.6359V17.6555C0.836351 17.6555 0.854337 17.5835 0.86333 17.5565C0.872323 17.5295 0.899302 17.5116 0.908295 17.4936C0.926281 17.4756 0.944268 17.4576 0.971247 17.4396L0.656491 16.6572C0.530588 16.7112 0.413679 16.7831 0.314756 16.891C0.215833 16.99 0.143888 17.1069 0.0809372 17.2328C0.0269791 17.3677 0 17.5026 0 17.6555V28.6359C0 29.2385 0.125902 29.814 0.341735 30.3446L1.10614 29.9849Z" fill="#E30613"/>
<path d="M17.9049 30.983C17.68 30.4524 17.3563 29.9848 16.9606 29.5891L1.83434 16.8909C1.73541 16.792 1.6185 16.7201 1.4926 16.6571C1.3667 16.6032 1.2318 16.5762 1.06993 16.5762C0.926041 16.5762 0.782152 16.6032 0.65625 16.6571L0.971006 17.4395C0.971006 17.4395 1.03396 17.4215 1.06993 17.4215C1.11489 17.4215 1.14187 17.4215 1.17785 17.4395C1.20482 17.4575 1.22281 17.4755 1.2408 17.4935L16.394 30.2096C16.7178 30.5423 16.9696 30.929 17.1495 31.3517L17.9139 30.983H17.9049Z" fill="url(#paint10_linear_234_1064)"/>
<path d="M10.6655 5.72168V10.1552L13.0847 12.1517V17.6015L11.4119 16.2255V20.3533L16.502 24.598V20.4882L15.3599 19.508V14.0942L17.743 16.0996V11.6391L10.6655 5.72168Z" fill="url(#paint11_linear_234_1064)"/>
<path d="M15.3599 19.5076V14.0938L15.8635 15.1729V19.2737L15.3599 19.5076Z" fill="#8A1002"/>
<path d="M13.0849 12.1426V17.6013L12.5723 16.5222V12.3854L13.0849 12.1426Z" fill="#E30613"/>
<path d="M17.743 11.6386L10.6655 5.72118L10.4497 5.26253C10.4497 5.26253 10.5217 5.23556 10.5486 5.22656C10.5846 5.22656 10.6206 5.22656 10.6565 5.22656C10.7105 5.22656 10.7735 5.22656 10.8274 5.25354C10.8814 5.27153 10.9353 5.29851 10.9803 5.34347L18.0668 11.2609C18.1208 11.3058 18.1657 11.3688 18.1927 11.4317L17.7341 11.6476L17.743 11.6386Z" fill="url(#paint12_linear_234_1064)"/>
<path d="M12.5719 12.3855L10.3326 10.542C10.2787 10.488 10.2247 10.4341 10.1978 10.3711L10.6564 10.1553L13.0755 12.1427L12.5629 12.3855H12.5719Z" fill="url(#paint13_linear_234_1064)"/>
<path d="M15.3599 14.0938L17.743 16.0992L17.9588 16.5578C17.9588 16.5578 17.8869 16.5848 17.8509 16.5938C17.815 16.6028 17.779 16.6028 17.743 16.6028C17.6891 16.6028 17.6261 16.6028 17.5721 16.5758C17.5182 16.5578 17.4642 16.5219 17.4193 16.4859L15.8635 15.1729L15.3599 14.0938Z" fill="url(#paint14_linear_234_1064)"/>
<path d="M16.5022 24.5979V20.4881L16.9608 20.2812C16.9878 20.3442 17.0058 20.4251 17.0058 20.4881V24.5979C17.0058 24.6968 16.9788 24.7957 16.9248 24.8677C16.8709 24.9486 16.7989 25.0116 16.709 25.0565L16.4932 24.5979H16.5022Z" fill="#8A1002"/>
<path d="M11.4118 16.2252V20.353L10.9532 20.5689C10.9262 20.5059 10.9082 20.434 10.9082 20.353V16.2252C10.9082 16.1263 10.9352 16.0364 10.9891 15.9555C11.0431 15.8745 11.115 15.8116 11.205 15.7666L11.4208 16.2252H11.4118Z" fill="#E30613"/>
<path d="M11.1963 15.7666C11.1963 15.7666 11.2592 15.7397 11.2952 15.7307C11.3312 15.7307 11.3672 15.7217 11.4121 15.7217C11.4661 15.7217 11.52 15.7217 11.583 15.7487C11.6369 15.7666 11.6909 15.8026 11.7359 15.8386L12.5812 16.5311L13.0938 17.6102L11.4211 16.2343L11.2053 15.7756L11.1963 15.7666Z" fill="url(#paint15_linear_234_1064)"/>
<path d="M16.7177 25.0561C16.7177 25.0561 16.6457 25.0831 16.6097 25.0921C16.5738 25.0921 16.5378 25.1011 16.5018 25.1011C16.4479 25.1011 16.3849 25.1011 16.331 25.0741C16.277 25.0561 16.223 25.0291 16.1781 24.9842L11.088 20.7394C11.0251 20.6855 10.9801 20.6315 10.9531 20.5596L11.4118 20.3438L16.5018 24.5885L16.7177 25.0471V25.0561Z" fill="url(#paint16_linear_234_1064)"/>
<path d="M15.8638 19.2744L16.835 20.1018C16.889 20.1467 16.9339 20.2097 16.9699 20.2816L16.5113 20.4885L15.3691 19.5082L15.8727 19.2744H15.8638Z" fill="url(#paint17_linear_234_1064)"/>
<path d="M18.2018 11.4229C18.2378 11.4858 18.2558 11.5667 18.2558 11.6387V16.0992C18.2558 16.1981 18.2288 16.2881 18.1748 16.369C18.1209 16.45 18.0489 16.5129 17.959 16.5579L17.7432 16.0992V11.6387L18.2018 11.4229Z" fill="#8A1002"/>
<path d="M10.6657 5.72154V10.1551L10.2071 10.3709C10.1801 10.308 10.1621 10.227 10.1621 10.1551V5.72154C10.1621 5.62262 10.1981 5.5237 10.243 5.44276C10.288 5.36182 10.3689 5.29887 10.4589 5.25391L10.6747 5.71255L10.6657 5.72154Z" fill="#E30613"/>
<path d="M22.8604 71.3705V63.6725L25.8191 61.2354V68.8974L22.8604 71.3705Z" fill="url(#paint18_linear_234_1064)"/>
<path d="M22.8604 50.9477V44.6076L25.8191 42.1436V48.4657L22.8604 50.9477Z" fill="url(#paint19_linear_234_1064)"/>
<path d="M38.7059 70.6511C38.7059 71.5863 38.3372 72.4766 37.6897 73.1421L22.5274 85.8762C22.5274 85.8762 22.4375 85.9482 22.3566 85.9482C22.2756 85.9482 22.2217 85.9122 22.1947 85.8762C22.1677 85.8403 22.1318 85.7953 22.1318 85.7144V74.7159C22.1318 73.7806 22.4915 72.8993 23.139 72.2338L35.7742 61.6311L35.8012 61.6041C36.7904 60.6058 37.339 59.2929 37.339 57.89V54.5535C37.339 54.0409 37.1411 53.5643 36.7814 53.2046C36.4217 52.8449 35.936 52.638 35.4234 52.638C34.9108 52.638 34.4612 52.8359 34.0925 53.1776L22.5185 62.8991C22.5185 62.8991 22.4285 62.962 22.3476 62.962C22.2667 62.962 22.2127 62.926 22.1857 62.8991C22.1587 62.8721 22.1228 62.8181 22.1228 62.7372V54.2927C22.1228 53.3575 22.4825 52.4762 23.13 51.8107L35.7652 41.2079L35.7922 41.1809C36.7814 40.1917 37.33 38.8697 37.33 37.4668V35.4614C37.33 34.9488 37.1321 34.4631 36.7724 34.1034C36.4127 33.7437 35.9271 33.5458 35.4145 33.5458C34.9018 33.5458 34.4522 33.7347 34.0835 34.0854L22.5095 43.8069C22.5095 43.8069 22.4195 43.8788 22.3386 43.8788C22.2577 43.8788 22.2037 43.8429 22.1767 43.8069C22.1497 43.7799 22.1138 43.7259 22.1138 43.645V32.6465C22.1138 31.7113 22.4735 30.8299 23.121 30.1555L38.2922 17.4303C38.2922 17.4303 38.3821 17.3584 38.4541 17.3584C38.526 17.3584 38.589 17.3944 38.616 17.4303C38.6429 17.4573 38.6789 17.5113 38.6789 17.5922V43.3302C38.6789 44.904 37.8516 45.6505 37.0512 46.4418C38.6609 46.0372 38.6789 47.3951 38.6789 47.3951V70.6511H38.7059Z" fill="url(#paint20_linear_234_1064)"/>
<path d="M36.1699 33.6986C35.9361 33.5997 35.6843 33.5547 35.4325 33.5547C35.1807 33.5547 34.9379 33.5997 34.722 33.6896C34.4972 33.7795 34.2904 33.9144 34.1105 34.0853L22.5365 43.8067C22.5365 43.8067 22.5005 43.8427 22.4735 43.8517C22.4466 43.8607 22.4106 43.8697 22.3746 43.8697C22.3386 43.8697 22.3027 43.8697 22.2757 43.8517L21.9609 44.6341C22.0868 44.6881 22.2307 44.715 22.3746 44.715C22.5185 44.715 22.6624 44.6881 22.7973 44.6341C22.9232 44.5801 23.0401 44.4992 23.139 44.4003L34.6861 34.7058C34.785 34.6069 34.9019 34.5259 35.0278 34.472C35.1537 34.418 35.2976 34.391 35.4415 34.391C35.5854 34.391 35.7293 34.418 35.8642 34.472L36.1789 33.6896L36.1699 33.6986Z" fill="url(#paint21_linear_234_1064)"/>
<path d="M36.1609 39.1855C35.9361 39.7161 35.6124 40.1838 35.2167 40.5885L22.5815 51.1912C22.1858 51.5869 21.862 52.0636 21.6372 52.5852L22.3926 52.9539C22.5635 52.5312 22.8153 52.1445 23.139 51.8118L35.7742 41.209L35.7922 41.182C36.2868 40.6874 36.6735 40.1118 36.9343 39.4823L36.143 39.1855H36.1609Z" fill="url(#paint22_linear_234_1064)"/>
<path d="M36.1699 52.7826C35.9361 52.6926 35.6843 52.6387 35.4325 52.6387C35.1807 52.6387 34.9379 52.6836 34.722 52.7736C34.4972 52.8725 34.2904 52.9984 34.1105 53.1783L22.5365 62.8997C22.5365 62.8997 22.5005 62.9267 22.4735 62.9447C22.4466 62.9537 22.4106 62.9627 22.3746 62.9627C22.3386 62.9627 22.3027 62.9627 22.2757 62.9447L21.9609 63.7271C22.0868 63.781 22.2307 63.817 22.3746 63.817C22.5185 63.817 22.6624 63.781 22.7973 63.7271C22.9232 63.6731 23.0401 63.5922 23.139 63.4932L34.6861 53.7988C34.785 53.6998 34.9019 53.6279 35.0278 53.565C35.1537 53.511 35.2976 53.475 35.4415 53.475C35.5854 53.475 35.7293 53.502 35.8642 53.556L36.1789 52.7736L36.1699 52.7826Z" fill="url(#paint23_linear_234_1064)"/>
<path d="M36.1609 59.6084C35.9361 60.139 35.6124 60.6066 35.2167 61.0113L22.5815 71.6231C22.1858 72.0188 21.862 72.4954 21.6372 73.017L22.3926 73.3857C22.5635 72.963 22.8153 72.5763 23.139 72.2436L35.7742 61.6408V61.6228H35.8012C36.2958 61.1282 36.6825 60.5437 36.9433 59.9142L36.1519 59.6174L36.1609 59.6084Z" fill="url(#paint24_linear_234_1064)"/>
<path d="M38.4454 72C38.2745 72.4227 38.0227 72.8094 37.6899 73.1511L22.5277 85.8852C22.5277 85.8852 22.4917 85.9212 22.4648 85.9302C22.4378 85.9392 22.4018 85.9572 22.3658 85.9572C22.3299 85.9572 22.2939 85.9482 22.2669 85.9302L21.9521 86.7126C22.0781 86.7665 22.2219 86.7935 22.3658 86.7935C22.5097 86.7935 22.6536 86.7665 22.7885 86.7126C22.9144 86.6586 23.0313 86.5867 23.1302 86.4788L38.2655 73.7716C38.6612 73.3669 38.9849 72.8993 39.2098 72.3687L38.4454 72Z" fill="url(#paint25_linear_234_1064)"/>
<path d="M38.7059 43.3302C38.7059 44.1216 38.508 44.6971 38.1933 45.1737C37.8875 45.6594 37.4828 46.0461 37.0781 46.4418L37.8335 46.0191C38.2292 45.6234 38.58 45.3446 38.9397 44.868C39.2904 44.3914 39.5512 43.8158 39.5512 43.0244L38.7059 43.3212V43.3302Z" fill="url(#paint26_linear_234_1064)"/>
<path d="M22.3923 31.3068C22.5632 30.8841 22.815 30.4974 23.1388 30.1647L38.31 17.4395C38.31 17.4395 38.346 17.4126 38.3729 17.3946C38.3999 17.3766 38.4359 17.3676 38.4719 17.3676C38.5078 17.3676 38.5438 17.3676 38.5708 17.3946L38.8855 16.6122C38.7596 16.5582 38.6158 16.5312 38.4719 16.5312C38.328 16.5312 38.1841 16.5582 38.0492 16.6122C37.9233 16.6661 37.8064 16.7471 37.7075 16.846L22.5722 29.5531C22.1765 29.9578 21.8528 30.4255 21.6279 30.9561L22.3833 31.3248L22.3923 31.3068Z" fill="url(#paint27_linear_234_1064)"/>
<path d="M21.6284 30.9375C21.4035 31.4591 21.2866 32.0436 21.2866 32.6462V43.6446C21.2866 43.7975 21.3226 43.9324 21.3676 44.0673C21.4215 44.1932 21.5025 44.3101 21.6014 44.409C21.7003 44.508 21.8082 44.5889 21.9431 44.6429L22.2579 43.8605C22.2579 43.8605 22.2129 43.8335 22.1949 43.8155C22.1859 43.8065 22.1679 43.7795 22.15 43.7526C22.141 43.7256 22.132 43.6986 22.132 43.6536V32.6552C22.132 32.1875 22.2129 31.7379 22.3928 31.3152L21.6373 30.9465L21.6284 30.9375Z" fill="#8A1002"/>
<path d="M39.5515 43.0342V17.593C39.5515 17.4401 39.5246 17.3052 39.4616 17.1703C39.4076 17.0444 39.3267 16.9275 39.2278 16.8285C39.1378 16.7296 39.0209 16.6487 38.886 16.5947L38.5713 17.3771C38.5713 17.3771 38.6163 17.4131 38.6342 17.4221C38.6432 17.4401 38.6612 17.4581 38.6792 17.485C38.6972 17.512 38.6972 17.548 38.6972 17.584V43.322L39.5425 43.0252L39.5515 43.0342Z" fill="#E30613"/>
<path d="M39.551 46.7753C39.533 46.6494 39.497 46.5325 39.4431 46.4336C39.3891 46.3347 39.3262 46.2357 39.2452 46.1458C39.1463 46.0469 39.0294 45.966 38.9035 45.912C38.7776 45.858 38.6337 45.8311 38.4898 45.8311C38.3459 45.8311 38.202 45.858 38.0761 45.903C37.9502 45.957 37.8423 46.0199 37.8423 46.0199L37.0869 46.4426C37.8963 46.2357 38.301 46.4785 38.4988 46.7663C38.7057 47.0631 38.7057 47.3958 38.7057 47.3958L39.551 46.7663V46.7753Z" fill="url(#paint28_linear_234_1064)"/>
<path d="M36.1609 59.6079C36.3858 59.0773 36.5027 58.5018 36.5027 57.8903V54.5538C36.5027 54.41 36.4757 54.2661 36.4217 54.1402C36.3678 54.0143 36.2869 53.8974 36.1879 53.7984C36.089 53.6995 35.9811 53.6186 35.8462 53.5646L36.1609 52.7822C36.3858 52.8811 36.6016 53.016 36.7815 53.2049C36.9613 53.3848 37.1052 53.6006 37.1951 53.8254C37.2941 54.0502 37.348 54.302 37.348 54.5628V57.8993C37.348 58.6007 37.2041 59.2752 36.9523 59.9047L36.1609 59.6079Z" fill="#8A1002"/>
<path d="M22.3928 73.3767C22.2219 73.7994 22.132 74.2491 22.132 74.7167V85.7152C22.132 85.7152 22.141 85.7871 22.15 85.8141C22.1589 85.8411 22.1769 85.868 22.1949 85.877C22.2129 85.895 22.2309 85.913 22.2579 85.922L21.9431 86.7044C21.8082 86.6504 21.7003 86.5785 21.6014 86.4706C21.5025 86.3717 21.4215 86.2547 21.3676 86.1288C21.3136 86.0029 21.2866 85.8591 21.2866 85.7062V74.7077C21.2866 74.1142 21.4035 73.5296 21.6284 72.999L22.3838 73.3677L22.3928 73.3767Z" fill="#8A1002"/>
<path d="M21.6284 52.584C21.4035 53.1146 21.2866 53.6901 21.2866 54.2927V62.7371C21.2866 62.89 21.3136 63.0249 21.3676 63.1508C21.4215 63.2767 21.5025 63.3936 21.6014 63.4925C21.7003 63.5914 21.8082 63.6634 21.9431 63.7263L22.2579 62.9439C22.2579 62.9439 22.2129 62.917 22.1949 62.899C22.1859 62.881 22.1679 62.863 22.15 62.836C22.141 62.8091 22.132 62.7731 22.132 62.7371V54.2927C22.132 53.825 22.2129 53.3754 22.3928 52.9527L21.6373 52.584H21.6284Z" fill="#8A1002"/>
<path d="M35.8462 34.4726C35.9721 34.5266 36.089 34.6075 36.1879 34.7064C36.2869 34.8054 36.3678 34.9223 36.4217 35.0482C36.4757 35.1741 36.5027 35.318 36.5027 35.4708V37.4763C36.5027 38.0788 36.3768 38.6634 36.1609 39.185L36.9523 39.4817C37.2041 38.8522 37.348 38.1688 37.348 37.4763V35.4708C37.348 35.21 37.2941 34.9672 37.1951 34.7334C37.1052 34.4996 36.9613 34.2928 36.7815 34.1129C36.6016 33.933 36.3858 33.7891 36.1609 33.6992L35.8462 34.4816V34.4726Z" fill="#8A1002"/>
<path d="M38.7061 47.3947V70.6507C38.7061 71.1183 38.6162 71.577 38.4453 71.9996L39.2097 72.3684C39.4345 71.8378 39.5604 71.2622 39.5604 70.6597V46.7832L38.7151 47.4127L38.7061 47.3947Z" fill="#E30613"/>
<path d="M28.8044 19.7597V15.596L24.11 19.5439V14.1751L28.8044 10.2271V5.7666L21.7988 11.666V25.6502L28.8044 19.7597Z" fill="url(#paint29_linear_234_1064)"/>
<path d="M24.614 14.4176V18.4465L24.1104 19.5436V14.1748L24.614 14.4176Z" fill="#8A1002"/>
<path d="M21.5834 26.1088C21.4935 26.0639 21.4215 26.0009 21.3676 25.92C21.3226 25.839 21.2866 25.7401 21.2866 25.6502V11.666C21.2866 11.5941 21.3046 11.5221 21.3316 11.4502L21.7992 11.666V25.6502L21.5834 26.1088Z" fill="#8A1002"/>
<path d="M29.2719 10.4434C29.2359 10.5063 29.1999 10.5693 29.137 10.6232L24.6225 14.4183L24.1099 14.1755L28.8042 10.2275L29.2719 10.4434Z" fill="url(#paint30_linear_234_1064)"/>
<path d="M28.8042 15.5956L24.1099 19.5435L24.6225 18.4464L28.4805 15.1999C28.5254 15.155 28.5794 15.128 28.6423 15.11C28.6963 15.092 28.7503 15.083 28.8042 15.083C28.8402 15.083 28.8852 15.083 28.9211 15.092C28.9571 15.092 28.9931 15.11 29.0201 15.128L28.8042 15.5956Z" fill="url(#paint31_linear_234_1064)"/>
<path d="M21.7988 25.6502L28.8044 19.7598L29.272 19.9756C29.2361 20.0385 29.2001 20.1015 29.1371 20.1465L22.1316 26.0369C22.0776 26.0729 22.0327 26.1088 21.9697 26.1268C21.9157 26.1448 21.8528 26.1538 21.7988 26.1538C21.7629 26.1538 21.7269 26.1538 21.6909 26.1448C21.655 26.1358 21.619 26.1268 21.583 26.1088L21.7988 25.6502Z" fill="url(#paint32_linear_234_1064)"/>
<path d="M28.8043 5.76651L21.7987 11.6749L21.3311 11.4591C21.367 11.3961 21.412 11.3332 21.466 11.2882L28.4715 5.37082C28.5165 5.32585 28.5704 5.29887 28.6334 5.28089C28.6873 5.2629 28.7413 5.25391 28.7953 5.25391C28.8312 5.25391 28.8762 5.25391 28.9122 5.2629C28.9481 5.2629 28.9841 5.28089 29.0111 5.29887L28.7953 5.76651H28.8043Z" fill="url(#paint33_linear_234_1064)"/>
<path d="M28.8047 10.227V5.76647L29.0205 5.29883C29.1105 5.34379 29.1824 5.40674 29.2364 5.48768C29.2903 5.56862 29.3173 5.66754 29.3173 5.76647V10.236C29.3173 10.3079 29.2993 10.3799 29.2723 10.4518L28.8047 10.236V10.227Z" fill="#E30613"/>
<path d="M29.0205 15.1289C29.1105 15.1739 29.1824 15.2368 29.2364 15.3178C29.2903 15.3987 29.3173 15.4976 29.3173 15.5965V19.7603C29.3173 19.8413 29.2993 19.9132 29.2723 19.9761L28.8047 19.7603V15.5965L29.0205 15.1289Z" fill="#E30613"/>
<defs>
<linearGradient id="paint0_linear_234_1064" x1="0.836426" y1="30.8117" x2="17.4016" y2="30.8117" gradientUnits="userSpaceOnUse">
<stop stop-color="#E30613"/>
<stop offset="0.27" stop-color="#E00612"/>
<stop offset="0.47" stop-color="#D60811"/>
<stop offset="0.65" stop-color="#C60B0E"/>
<stop offset="0.77" stop-color="#B70E0C"/>
</linearGradient>
<linearGradient id="paint1_linear_234_1064" x1="0.845215" y1="72.5576" x2="17.4104" y2="72.5576" gradientUnits="userSpaceOnUse">
<stop stop-color="#E30613"/>
<stop offset="0.27" stop-color="#E00612"/>
<stop offset="0.47" stop-color="#D60811"/>
<stop offset="0.65" stop-color="#C60B0E"/>
<stop offset="0.77" stop-color="#B70E0C"/>
</linearGradient>
<linearGradient id="paint2_linear_234_1064" x1="1.00723" y1="56.4608" x2="6.87967" y2="56.4608" gradientUnits="userSpaceOnUse">
<stop stop-color="#91160F"/>
<stop offset="0.51" stop-color="#B71918"/>
<stop offset="0.78" stop-color="#9F1712"/>
<stop offset="1" stop-color="#91160F"/>
</linearGradient>
<linearGradient id="paint3_linear_234_1064" x1="12.1858" y1="46.5858" x2="17.2398" y2="46.5858" gradientUnits="userSpaceOnUse">
<stop stop-color="#91160F"/>
<stop offset="0.51" stop-color="#B71918"/>
<stop offset="0.78" stop-color="#9F1712"/>
<stop offset="1" stop-color="#91160F"/>
</linearGradient>
<linearGradient id="paint4_linear_234_1064" x1="7.45958e-05" y1="51.0197" x2="0.899377" y2="51.0197" gradientUnits="userSpaceOnUse">
<stop stop-color="#E30613"/>
<stop offset="0.27" stop-color="#E00612"/>
<stop offset="0.47" stop-color="#D60811"/>
<stop offset="0.65" stop-color="#C60B0E"/>
<stop offset="0.77" stop-color="#B70E0C"/>
</linearGradient>
<linearGradient id="paint5_linear_234_1064" x1="0.65625" y1="45.5872" x2="17.9049" y2="45.5872" gradientUnits="userSpaceOnUse">
<stop stop-color="#E30613"/>
<stop offset="0.27" stop-color="#E00612"/>
<stop offset="0.47" stop-color="#D60811"/>
<stop offset="0.65" stop-color="#C60B0E"/>
<stop offset="0.77" stop-color="#B70E0C"/>
</linearGradient>
<linearGradient id="paint6_linear_234_1064" x1="0.341797" y1="56.4421" x2="17.5904" y2="56.4421" gradientUnits="userSpaceOnUse">
<stop offset="0.23" stop-color="#B70E0C"/>
<stop offset="0.65" stop-color="#D10910"/>
<stop offset="1" stop-color="#E30613"/>
</linearGradient>
<linearGradient id="paint7_linear_234_1064" x1="0.54858" y1="64.7786" x2="17.9051" y2="64.7786" gradientUnits="userSpaceOnUse">
<stop offset="0.23" stop-color="#B70E0C"/>
<stop offset="0.65" stop-color="#D10910"/>
<stop offset="1" stop-color="#E30613"/>
</linearGradient>
<linearGradient id="paint8_linear_234_1064" x1="0.351074" y1="79.4009" x2="17.5997" y2="79.4009" gradientUnits="userSpaceOnUse">
<stop stop-color="#E30613"/>
<stop offset="0.27" stop-color="#E00612"/>
<stop offset="0.47" stop-color="#D60811"/>
<stop offset="0.65" stop-color="#C60B0E"/>
<stop offset="0.77" stop-color="#B70E0C"/>
</linearGradient>
<linearGradient id="paint9_linear_234_1064" x1="6.19452e-05" y1="38.5999" x2="17.6983" y2="38.5999" gradientUnits="userSpaceOnUse">
<stop offset="0.23" stop-color="#B70E0C"/>
<stop offset="0.65" stop-color="#D10910"/>
<stop offset="1" stop-color="#E30613"/>
</linearGradient>
<linearGradient id="paint10_linear_234_1064" x1="0.65625" y1="23.9684" x2="17.9049" y2="23.9684" gradientUnits="userSpaceOnUse">
<stop stop-color="#E30613"/>
<stop offset="0.27" stop-color="#E00612"/>
<stop offset="0.47" stop-color="#D60811"/>
<stop offset="0.65" stop-color="#C60B0E"/>
<stop offset="0.77" stop-color="#B70E0C"/>
</linearGradient>
<linearGradient id="paint11_linear_234_1064" x1="10.6655" y1="15.1644" x2="17.743" y2="15.1644" gradientUnits="userSpaceOnUse">
<stop stop-color="#E30613"/>
<stop offset="0.27" stop-color="#E00612"/>
<stop offset="0.47" stop-color="#D60811"/>
<stop offset="0.65" stop-color="#C60B0E"/>
<stop offset="0.77" stop-color="#B70E0C"/>
</linearGradient>
<linearGradient id="paint12_linear_234_1064" x1="10.4497" y1="8.42808" x2="18.2017" y2="8.42808" gradientUnits="userSpaceOnUse">
<stop stop-color="#E30613"/>
<stop offset="0.27" stop-color="#E00612"/>
<stop offset="0.47" stop-color="#D60811"/>
<stop offset="0.65" stop-color="#C60B0E"/>
<stop offset="0.77" stop-color="#B70E0C"/>
</linearGradient>
<linearGradient id="paint13_linear_234_1064" x1="10.2067" y1="11.2704" x2="13.0845" y2="11.2704" gradientUnits="userSpaceOnUse">
<stop offset="0.23" stop-color="#B70E0C"/>
<stop offset="0.65" stop-color="#D10910"/>
<stop offset="1" stop-color="#E30613"/>
</linearGradient>
<linearGradient id="paint14_linear_234_1064" x1="15.3599" y1="15.3528" x2="17.9588" y2="15.3528" gradientUnits="userSpaceOnUse">
<stop offset="0.23" stop-color="#B70E0C"/>
<stop offset="0.65" stop-color="#D10910"/>
<stop offset="1" stop-color="#E30613"/>
</linearGradient>
<linearGradient id="paint15_linear_234_1064" x1="11.1963" y1="16.657" x2="13.0848" y2="16.657" gradientUnits="userSpaceOnUse">
<stop offset="0.23" stop-color="#B70E0C"/>
<stop offset="0.65" stop-color="#D10910"/>
<stop offset="1" stop-color="#E30613"/>
</linearGradient>
<linearGradient id="paint16_linear_234_1064" x1="10.9531" y1="22.7269" x2="16.7177" y2="22.7269" gradientUnits="userSpaceOnUse">
<stop offset="0.23" stop-color="#B70E0C"/>
<stop offset="0.65" stop-color="#D10910"/>
<stop offset="1" stop-color="#E30613"/>
</linearGradient>
<linearGradient id="paint17_linear_234_1064" x1="15.3601" y1="19.8859" x2="16.9609" y2="19.8859" gradientUnits="userSpaceOnUse">
<stop offset="0.23" stop-color="#B70E0C"/>
<stop offset="0.65" stop-color="#D10910"/>
<stop offset="1" stop-color="#E30613"/>
</linearGradient>
<linearGradient id="paint18_linear_234_1064" x1="26.301" y1="69.0368" x2="22.5089" y2="64.5176" gradientUnits="userSpaceOnUse">
<stop stop-color="#91160F"/>
<stop offset="0.51" stop-color="#B71918"/>
<stop offset="0.78" stop-color="#9F1712"/>
<stop offset="1" stop-color="#91160F"/>
</linearGradient>
<linearGradient id="paint19_linear_234_1064" x1="25.9701" y1="48.888" x2="22.8485" y2="45.1679" gradientUnits="userSpaceOnUse">
<stop stop-color="#91160F"/>
<stop offset="0.51" stop-color="#B71918"/>
<stop offset="0.78" stop-color="#9F1712"/>
<stop offset="1" stop-color="#91160F"/>
</linearGradient>
<linearGradient id="paint20_linear_234_1064" x1="22.1318" y1="51.6578" x2="38.7059" y2="51.6578" gradientUnits="userSpaceOnUse">
<stop offset="0.23" stop-color="#B70E0C"/>
<stop offset="0.35" stop-color="#C60B0E"/>
<stop offset="0.53" stop-color="#D60811"/>
<stop offset="0.73" stop-color="#E00612"/>
<stop offset="1" stop-color="#E30613"/>
</linearGradient>
<linearGradient id="paint21_linear_234_1064" x1="21.943" y1="39.1304" x2="36.1699" y2="39.1304" gradientUnits="userSpaceOnUse">
<stop stop-color="#E30613"/>
<stop offset="0.35" stop-color="#D10910"/>
<stop offset="0.77" stop-color="#B70E0C"/>
</linearGradient>
<linearGradient id="paint22_linear_234_1064" x1="21.6282" y1="46.0652" x2="36.9523" y2="46.0652" gradientUnits="userSpaceOnUse">
<stop offset="0.23" stop-color="#B70E0C"/>
<stop offset="0.35" stop-color="#C60B0E"/>
<stop offset="0.53" stop-color="#D60811"/>
<stop offset="0.73" stop-color="#E00612"/>
<stop offset="1" stop-color="#E30613"/>
</linearGradient>
<linearGradient id="paint23_linear_234_1064" x1="-2.49726e-05" y1="58.2233" x2="0.899277" y2="58.2233" gradientUnits="userSpaceOnUse">
<stop stop-color="#E30613"/>
<stop offset="0.35" stop-color="#D10910"/>
<stop offset="0.77" stop-color="#B70E0C"/>
</linearGradient>
<linearGradient id="paint24_linear_234_1064" x1="21.6282" y1="66.4881" x2="36.9523" y2="66.4881" gradientUnits="userSpaceOnUse">
<stop stop-color="#E30613"/>
<stop offset="0.35" stop-color="#D10910"/>
<stop offset="0.77" stop-color="#B70E0C"/>
</linearGradient>
<linearGradient id="paint25_linear_234_1064" x1="21.9432" y1="79.3923" x2="39.2008" y2="79.3923" gradientUnits="userSpaceOnUse">
<stop offset="0.23" stop-color="#B70E0C"/>
<stop offset="0.35" stop-color="#C60B0E"/>
<stop offset="0.53" stop-color="#D60811"/>
<stop offset="0.73" stop-color="#E00612"/>
<stop offset="1" stop-color="#E30613"/>
</linearGradient>
<linearGradient id="paint26_linear_234_1064" x1="37.6357" y1="45.3806" x2="39.3264" y2="43.582" gradientUnits="userSpaceOnUse">
<stop offset="0.23" stop-color="#B70E0C"/>
<stop offset="0.65" stop-color="#D10910"/>
<stop offset="1" stop-color="#E30613"/>
</linearGradient>
<linearGradient id="paint27_linear_234_1064" x1="21.6279" y1="23.9145" x2="38.8945" y2="23.9145" gradientUnits="userSpaceOnUse">
<stop offset="0.23" stop-color="#B70E0C"/>
<stop offset="0.35" stop-color="#C60B0E"/>
<stop offset="0.53" stop-color="#D60811"/>
<stop offset="0.73" stop-color="#E00612"/>
<stop offset="1" stop-color="#E30613"/>
</linearGradient>
<linearGradient id="paint28_linear_234_1064" x1="37.8963" y1="45.7951" x2="38.7956" y2="47.3689" gradientUnits="userSpaceOnUse">
<stop offset="0.23" stop-color="#B70E0C"/>
<stop offset="0.65" stop-color="#D10910"/>
<stop offset="1" stop-color="#E30613"/>
</linearGradient>
<linearGradient id="paint29_linear_234_1064" x1="21.7988" y1="15.7039" x2="28.8044" y2="15.7039" gradientUnits="userSpaceOnUse">
<stop offset="0.23" stop-color="#B70E0C"/>
<stop offset="0.35" stop-color="#C60B0E"/>
<stop offset="0.53" stop-color="#D60811"/>
<stop offset="0.73" stop-color="#E00612"/>
<stop offset="1" stop-color="#E30613"/>
</linearGradient>
<linearGradient id="paint30_linear_234_1064" x1="24.1099" y1="12.3229" x2="29.2719" y2="12.3229" gradientUnits="userSpaceOnUse">
<stop stop-color="#E30613"/>
<stop offset="0.35" stop-color="#D10910"/>
<stop offset="0.77" stop-color="#B70E0C"/>
</linearGradient>
<linearGradient id="paint31_linear_234_1064" x1="24.1099" y1="17.3133" x2="29.0201" y2="17.3133" gradientUnits="userSpaceOnUse">
<stop offset="0.23" stop-color="#B70E0C"/>
<stop offset="0.65" stop-color="#D10910"/>
<stop offset="1" stop-color="#E30613"/>
</linearGradient>
<linearGradient id="paint32_linear_234_1064" x1="21.583" y1="22.9523" x2="29.272" y2="22.9523" gradientUnits="userSpaceOnUse">
<stop stop-color="#E30613"/>
<stop offset="0.35" stop-color="#D10910"/>
<stop offset="0.77" stop-color="#B70E0C"/>
</linearGradient>
<linearGradient id="paint33_linear_234_1064" x1="21.3311" y1="8.46442" x2="29.0201" y2="8.46442" gradientUnits="userSpaceOnUse">
<stop offset="0.23" stop-color="#B70E0C"/>
<stop offset="0.35" stop-color="#C60B0E"/>
<stop offset="0.53" stop-color="#D60811"/>
<stop offset="0.73" stop-color="#E00612"/>
<stop offset="1" stop-color="#E30613"/>
</linearGradient>
</defs>
</svg>
